<svg id="LOGO_16px" data-name="LOGO 16px" xmlns="http://www.w3.org/2000/svg" width="54.5" height="8" viewBox="0 0 54.5 8">
  <path id="VOJO" d="M43.25,8a4.565,4.565,0,0,1-2.181-.519A3.852,3.852,0,0,1,39,4,3.852,3.852,0,0,1,41.07.519a4.825,4.825,0,0,1,4.355,0,3.931,3.931,0,0,1,1.52,1.431A3.881,3.881,0,0,1,47.5,4a3.883,3.883,0,0,1-.555,2.05,3.931,3.931,0,0,1-1.52,1.431A4.532,4.532,0,0,1,43.25,8ZM43.3,1.5a2.585,2.585,0,0,0-1.278.318,2.32,2.32,0,0,0-.9.887A2.575,2.575,0,0,0,40.8,4a2.576,2.576,0,0,0,.326,1.3,2.32,2.32,0,0,0,.9.887,2.731,2.731,0,0,0,2.557,0,2.319,2.319,0,0,0,.9-.887A2.576,2.576,0,0,0,45.8,4a2.575,2.575,0,0,0-.326-1.294,2.319,2.319,0,0,0-.9-.887A2.591,2.591,0,0,0,43.3,1.5ZM30.613,8a3.7,3.7,0,0,1-1.5-.3A2.865,2.865,0,0,1,28,6.854L29.031,5.64a1.869,1.869,0,0,0,1.49.865c.752,0,1.134-.438,1.134-1.3V1.461H28.837V0H33.5V5.1a2.943,2.943,0,0,1-.734,2.174A2.955,2.955,0,0,1,30.613,8ZM18.25,8a4.565,4.565,0,0,1-2.181-.519A3.849,3.849,0,0,1,14,4,3.849,3.849,0,0,1,16.07.519a4.825,4.825,0,0,1,4.355,0A3.928,3.928,0,0,1,21.946,1.95,3.876,3.876,0,0,1,22.5,4a3.878,3.878,0,0,1-.554,2.05,3.92,3.92,0,0,1-1.521,1.431A4.532,4.532,0,0,1,18.25,8Zm.05-6.5a2.592,2.592,0,0,0-1.278.318,2.314,2.314,0,0,0-.9.887A2.559,2.559,0,0,0,15.8,4a2.561,2.561,0,0,0,.325,1.3,2.314,2.314,0,0,0,.9.887,2.731,2.731,0,0,0,2.557,0,2.314,2.314,0,0,0,.9-.887A2.561,2.561,0,0,0,20.8,4a2.559,2.559,0,0,0-.325-1.294,2.314,2.314,0,0,0-.9-.887A2.594,2.594,0,0,0,18.3,1.5ZM5.134,8H3.355L0,0H1.944L4.311,5.714,6.711,0H8.5L5.134,8Z" fill="#fff"/>
  <circle id="Oval" cx="1.5" cy="1.5" r="1.5" transform="translate(51.5 5)" fill="#009865"/>
</svg>
