<svg id="LOGO_16px" data-name="LOGO 16px" xmlns="http://www.w3.org/2000/svg" width="109" height="16" viewBox="0 0 109 16">
  <path id="VOJO" d="M86.5,16a9.139,9.139,0,0,1-4.361-1.039A7.7,7.7,0,0,1,78,8a7.7,7.7,0,0,1,4.139-6.961,9.65,9.65,0,0,1,8.71,0A7.851,7.851,0,0,1,93.891,3.9,7.763,7.763,0,0,1,95,8a7.768,7.768,0,0,1-1.11,4.1,7.864,7.864,0,0,1-3.041,2.862A9.075,9.075,0,0,1,86.5,16Zm.1-13a5.19,5.19,0,0,0-2.557.636,4.635,4.635,0,0,0-1.792,1.775A5.146,5.146,0,0,0,81.6,8a5.146,5.146,0,0,0,.651,2.589,4.643,4.643,0,0,0,1.792,1.775,5.462,5.462,0,0,0,5.114,0,4.644,4.644,0,0,0,1.793-1.775A5.146,5.146,0,0,0,91.6,8a5.146,5.146,0,0,0-.651-2.589,4.637,4.637,0,0,0-1.793-1.775A5.185,5.185,0,0,0,86.6,3ZM61.225,16a7.437,7.437,0,0,1-2.991-.6A5.724,5.724,0,0,1,56,13.708l2.063-2.427a3.736,3.736,0,0,0,2.979,1.731c1.506,0,2.269-.877,2.269-2.606V2.921H57.673V0H67V10.2a5.888,5.888,0,0,1-1.466,4.348A5.909,5.909,0,0,1,61.225,16ZM36.5,16a9.141,9.141,0,0,1-4.361-1.039A7.7,7.7,0,0,1,28,8a7.7,7.7,0,0,1,4.139-6.961,9.652,9.652,0,0,1,8.711,0A7.851,7.851,0,0,1,43.89,3.9,7.763,7.763,0,0,1,45,8a7.768,7.768,0,0,1-1.11,4.1,7.863,7.863,0,0,1-3.04,2.862A9.075,9.075,0,0,1,36.5,16Zm.1-13a5.194,5.194,0,0,0-2.558.636,4.643,4.643,0,0,0-1.792,1.775A5.144,5.144,0,0,0,31.6,8a5.144,5.144,0,0,0,.651,2.589,4.639,4.639,0,0,0,1.792,1.775,5.464,5.464,0,0,0,5.115,0,4.639,4.639,0,0,0,1.792-1.775A5.144,5.144,0,0,0,41.6,8a5.144,5.144,0,0,0-.651-2.589,4.643,4.643,0,0,0-1.792-1.775A5.192,5.192,0,0,0,36.6,3ZM10.266,16H6.711L0,0H3.889L8.622,11.428,13.423,0H17L10.266,16Z" fill="#1900b9"/>
  <circle id="Oval" cx="3" cy="3" r="3" transform="translate(103 10)" fill="#080808"/>
</svg>
